<?xml version="1.0" standalone="no"?>
<!DOCTYPE svg PUBLIC "-//W3C//DTD SVG 20010904//EN"
 "http://www.w3.org/TR/2001/REC-SVG-20010904/DTD/svg10.dtd">
<svg version="1.0" xmlns="http://www.w3.org/2000/svg"
 width="2905.000000pt" height="2905.000000pt" viewBox="0 0 2905.000000 2905.000000"
 preserveAspectRatio="xMidYMid meet">
<metadata>
Created by potrace 1.14, written by Peter Selinger 2001-2017
</metadata>
<g transform="translate(0.000000,2905.000000) scale(0.100000,-0.100000)"
fill="#000000" stroke="none">
<path d="M20678 20285 c-2 -1 -91 -6 -198 -9 -201 -7 -277 -11 -440 -21 -52
-4 -129 -8 -170 -10 -41 -2 -93 -6 -115 -9 -22 -3 -83 -8 -135 -11 -52 -4
-111 -8 -130 -10 -19 -2 -69 -7 -110 -10 -41 -3 -91 -8 -110 -10 -19 -3 -60
-7 -90 -10 -30 -3 -71 -8 -90 -10 -19 -2 -62 -7 -95 -10 -33 -3 -76 -7 -95
-10 -19 -2 -60 -7 -90 -10 -30 -4 -104 -13 -165 -20 -60 -8 -130 -17 -155 -20
-25 -3 -74 -9 -110 -15 -36 -5 -83 -11 -105 -14 -22 -3 -71 -10 -108 -16 -37
-6 -87 -13 -111 -16 -24 -2 -52 -6 -62 -8 -11 -2 -55 -9 -99 -15 -44 -7 -102
-16 -130 -21 -27 -5 -66 -12 -85 -14 -52 -8 -282 -46 -305 -51 -41 -8 -131
-24 -165 -29 -19 -3 -46 -8 -60 -11 -14 -2 -36 -7 -50 -10 -14 -2 -41 -7 -60
-10 -19 -4 -54 -10 -78 -16 -23 -5 -59 -12 -80 -15 -20 -3 -136 -26 -257 -50
-121 -25 -231 -47 -245 -50 -14 -2 -56 -11 -95 -20 -38 -8 -79 -16 -90 -19
-80 -16 -496 -108 -550 -122 -11 -2 -36 -8 -55 -13 -284 -66 -918 -226 -1205
-304 -301 -82 -401 -110 -590 -164 -115 -33 -280 -81 -365 -107 -85 -25 -186
-55 -225 -66 -87 -26 -177 -54 -370 -115 -82 -25 -186 -58 -230 -71 -131 -41
-1168 -387 -1320 -441 -77 -27 -194 -69 -260 -92 -66 -22 -129 -45 -140 -50
-11 -4 -103 -38 -205 -75 -274 -100 -532 -195 -555 -205 -11 -5 -114 -45 -230
-89 -338 -128 -938 -365 -1140 -452 -11 -4 -49 -20 -85 -34 -36 -15 -78 -32
-95 -40 -16 -7 -55 -23 -85 -35 -54 -21 -96 -38 -155 -65 -16 -7 -102 -43
-190 -80 -158 -66 -193 -81 -257 -109 -186 -81 -452 -197 -533 -233 -55 -25
-120 -54 -145 -65 -106 -48 -147 -66 -370 -168 -129 -59 -275 -127 -325 -150
-543 -257 -628 -299 -1002 -487 -342 -172 -450 -227 -568 -293 -27 -15 -86
-47 -130 -70 -165 -89 -193 -104 -315 -178 -69 -41 -153 -94 -187 -118 l-61
-44 -69 21 c-86 27 -158 63 -176 89 -16 24 -63 22 -212 -6 -189 -35 -511 -123
-785 -214 -198 -66 -206 -71 -219 -127 -14 -63 -29 -161 -36 -248 -4 -38 -8
-81 -10 -95 -2 -14 -7 -59 -10 -100 -4 -41 -9 -83 -11 -93 -1 -9 -6 -54 -9
-100 -3 -45 -8 -89 -10 -97 -2 -8 -7 -44 -10 -80 -4 -36 -16 -108 -26 -160
-23 -105 -17 -95 -195 -335 -147 -198 -270 -383 -318 -475 -21 -41 -42 -79
-46 -85 -4 -5 -28 -62 -54 -125 -54 -129 -58 -135 -98 -156 -44 -23 -225 -65
-338 -79 -19 -3 -66 -9 -105 -15 -38 -5 -90 -12 -115 -15 -25 -3 -61 -7 -80
-10 -19 -2 -60 -7 -90 -10 -30 -3 -68 -8 -85 -10 -16 -2 -57 -7 -90 -10 -214
-23 -470 -71 -500 -95 -23 -18 -239 -80 -365 -105 -122 -25 -138 -30 -162 -58
-48 -54 -34 -70 72 -82 36 -4 73 -9 83 -11 39 -7 217 -17 732 -39 266 -12 356
-16 425 -20 134 -9 214 -15 250 -20 19 -3 57 -7 85 -10 27 -3 57 -7 65 -9 8
-3 33 -7 55 -11 22 -3 55 -13 75 -23 33 -16 35 -21 51 -102 65 -330 274 -643
631 -946 14 -12 71 -54 125 -93 l100 -71 -3 -68 c-1 -37 -6 -105 -9 -152 -4
-47 -8 -107 -10 -135 -6 -94 -15 -220 -20 -275 -21 -238 -25 -526 -9 -603 7
-34 20 -64 30 -72 285 -219 524 -329 734 -339 57 -3 164 21 225 49 103 49 217
175 280 310 10 22 33 80 50 130 l31 89 75 1 c144 2 221 50 278 175 19 40 38
69 45 67 136 -51 538 -178 607 -192 9 -2 47 -12 85 -24 110 -32 612 -150 714
-167 14 -2 45 -9 70 -14 25 -5 72 -14 105 -20 33 -6 107 -19 165 -30 109 -19
128 -23 245 -41 39 -6 81 -12 95 -15 14 -2 41 -7 60 -9 19 -3 67 -10 105 -16
39 -6 81 -12 95 -14 64 -10 360 -47 405 -51 27 -2 61 -7 75 -9 14 -3 54 -7 90
-11 36 -3 76 -7 90 -10 14 -2 52 -6 85 -9 33 -3 76 -7 95 -10 54 -6 216 -21
330 -30 41 -3 91 -8 110 -10 19 -2 80 -7 135 -10 55 -4 116 -8 136 -10 19 -2
85 -7 145 -10 60 -4 129 -8 154 -10 77 -7 304 -18 575 -30 88 -3 194 -8 235
-10 577 -27 2382 -27 3045 0 44 2 168 6 275 10 107 4 224 8 260 10 36 2 139 6
230 10 91 4 190 8 220 10 30 2 118 6 195 10 162 8 178 9 535 30 41 3 111 7
155 10 127 9 204 14 290 20 166 10 251 16 290 20 22 2 81 6 130 10 50 3 110 8
135 11 25 2 81 6 126 9 44 3 98 7 120 9 21 3 75 7 119 11 44 4 96 8 115 10 19
2 71 6 115 10 44 4 94 8 110 10 115 11 194 18 220 21 17 1 63 6 102 9 40 3 83
8 94 10 12 3 54 7 93 10 89 8 139 13 185 19 20 3 65 8 101 11 36 3 76 8 90 10
31 4 150 18 170 20 16 1 118 14 160 20 14 2 48 6 75 9 28 4 61 8 75 11 14 2
45 7 71 10 25 3 91 13 147 23 l102 18 20 -62 c50 -149 180 -312 309 -388 136
-79 269 -107 539 -111 84 -1 154 -4 157 -7 10 -10 9 -98 -1 -108 -13 -13 -29
-14 -125 -5 -87 9 -136 -3 -174 -41 -46 -46 -45 -128 3 -195 38 -53 75 -73
126 -66 48 7 95 54 122 122 12 32 23 44 42 49 48 10 131 66 157 104 22 33 32
70 34 123 1 15 20 16 154 16 156 0 196 3 282 23 183 41 289 117 346 244 27 63
46 182 43 276 -7 229 -6 278 11 313 16 34 21 37 108 57 93 22 257 59 290 65
10 2 27 7 37 10 10 3 28 8 40 10 32 6 196 45 260 62 30 8 66 16 80 19 14 2 32
7 40 11 8 3 31 9 50 13 46 11 285 73 380 100 41 11 82 22 90 25 49 12 191 52
295 82 66 20 125 36 130 37 16 4 97 27 140 42 22 7 81 25 130 40 173 51 531
168 740 241 228 79 489 173 522 188 17 8 34 15 37 15 30 0 808 325 1041 435
50 23 119 55 155 71 73 32 521 257 645 324 183 98 413 231 669 385 115 70 533
351 664 447 121 88 391 299 469 365 12 10 30 25 40 33 50 42 183 159 223 196
25 24 56 52 70 64 97 83 453 449 560 576 565 669 924 1306 1119 1989 13 44 27
91 31 105 5 14 18 68 30 120 78 336 127 450 239 558 24 23 42 44 40 45 -2 2
-30 20 -61 42 -99 66 -195 165 -393 405 -66 80 -122 147 -125 150 -3 3 -44 50
-91 105 -334 386 -674 725 -969 962 -184 148 -333 258 -531 390 -125 85 -414
263 -425 263 -2 0 -23 12 -45 26 -49 31 -429 223 -546 277 -374 171 -843 342
-1223 447 -63 17 -135 38 -160 46 -25 7 -60 16 -79 19 -19 3 -37 8 -40 9 -21
13 -439 105 -726 159 -84 16 -368 62 -445 72 -25 3 -56 8 -70 11 -14 2 -45 6
-69 9 -25 2 -121 13 -215 24 -94 11 -202 22 -241 26 -38 3 -88 8 -110 10 -71
8 -253 21 -440 31 -71 3 -157 8 -190 11 -69 4 -1162 12 -1167 8z"/>
</g>
</svg>
